<?xml version="1.0" encoding="UTF-8" standalone="no"?>
<svg
        xmlns:dc="http://purl.org/dc/elements/1.1/"
        xmlns:cc="http://creativecommons.org/ns#"
        xmlns:rdf="http://www.w3.org/1999/02/22-rdf-syntax-ns#"
        xmlns="http://www.w3.org/2000/svg"
        xmlns:sodipodi="http://sodipodi.sourceforge.net/DTD/sodipodi-0.dtd"
        xmlns:inkscape="http://www.inkscape.org/namespaces/inkscape"
        id="Layer_1"
        style="enable-background:new 0 0 24 24;"
        version="1.1"
        viewBox="0 0 24 24"
        xml:space="preserve"
        inkscape:version="0.91 r13725"
        sodipodi:docname="icon.svg"
        inkscape:export-filename="C:\Users\Anton\Documents\GitHub\proxyfy\src\img\icon_a_38.png"
        inkscape:export-xdpi="142.58083"
        inkscape:export-ydpi="142.58083"><metadata
     id="metadata3398"><rdf:RDF><cc:Work
         rdf:about=""><dc:format>image/svg+xml</dc:format><dc:type
           rdf:resource="http://purl.org/dc/dcmitype/StillImage" /></cc:Work></rdf:RDF></metadata><defs
     id="defs3396" /><sodipodi:namedview
     pagecolor="#ffffff"
     bordercolor="#666666"
     borderopacity="1"
     objecttolerance="10"
     gridtolerance="10"
     guidetolerance="10"
     inkscape:pageopacity="0"
     inkscape:pageshadow="2"
     inkscape:window-width="1858"
     inkscape:window-height="1057"
     id="namedview3394"
     showgrid="false"
     inkscape:zoom="36.75"
     inkscape:cx="12"
     inkscape:cy="12"
     inkscape:window-x="-8"
     inkscape:window-y="-8"
     inkscape:window-maximized="1"
     inkscape:current-layer="Layer_1" /><path
     d="m 21.612569,14.682376 c -0.07196,-0.07196 -0.163544,-0.122113 -0.26385,-0.145009 -0.195162,-0.04361 -0.424123,0.01308 -0.74903,0.105759 -0.45029,0.128654 -1.131722,0.321635 -1.991961,0.321635 -1.454448,0 -2.868555,-0.569131 -4.205251,-1.68995 l 1.547122,-1.546032 c 0.155912,-0.155912 0.202794,-0.390324 0.117752,-0.594209 -0.08395,-0.203884 -0.283476,-0.3369 -0.503715,-0.3369 l -1.261466,0 c -0.605111,0 -1.096832,-0.491721 -1.096832,-1.096832 l 0,-1.2603762 c 0,-0.2202388 -0.133016,-0.4197619 -0.3369,-0.5037143 -0.206065,-0.085043 -0.439387,-0.03816 -0.594208,0.1188417 L 10.729288,9.6038021 C 8.3906147,6.8191995 9.0644143,4.4456368 9.3587928,3.4076801 9.4547384,3.0707803 9.5125238,2.8679862 9.464551,2.6575601 9.4416549,2.5572534 9.3915015,2.4667592 9.3195424,2.3948 7.795316,0.8585805 5.7641045,0.01360524 3.5998775,0.01360524 c -1.1371731,0 -2.2383667,0.23223191 -3.27523303,0.69015399 C 0.16437174,0.77462812 0.04880093,0.9174562 0.01173105,1.0886318 -0.02424854,1.2587172 0.02372425,1.4375248 0.13929506,1.5672694 2.1955832,3.8525187 2.9435226,6.9892849 2.1410686,9.9592369 c -0.055605,0.2038841 0.011993,0.4197621 0.172266,0.5571381 0.1384669,0.117752 0.2769338,0.237684 0.4066784,0.366338 1.2113129,1.210223 1.9298145,2.826033 2.02576,4.548693 0.013084,0.240954 0.014174,0.481908 0.00327,0.721772 -0.061056,1.246202 -0.56259,2.527294 -1.4533574,3.702627 l -0.2638504,0.348893 c -0.1646339,0.216968 -0.1439184,0.522249 0.049063,0.714141 0.1918911,0.192981 0.4960822,0.214787 0.7141404,0.04906 l 0.348893,-0.264941 C 5.3192659,19.813284 6.6014477,19.31175 7.84765,19.251784 c 0.2409542,-0.01199 0.4808181,-0.0109 0.7217724,0.0022 1.7226596,0.09485 3.3384696,0.814447 4.5508726,2.02576 0.129745,0.129744 0.248586,0.268211 0.365247,0.405588 0.136287,0.160273 0.348893,0.22678 0.558229,0.173356 2.915437,-0.791551 6.141608,-0.02617 8.395238,1.999593 C 22.539316,23.950937 22.671241,24 22.804257,24 c 0.03816,0 0.07632,-0.0033 0.11339,-0.01199 0.171176,-0.03598 0.314004,-0.152641 0.384873,-0.312914 1.345418,-3.04082 0.665077,-6.655134 -1.689951,-8.992717 z"
     id="XMLID_54_"
     style="fill:#0a77e5;fill-opacity:1"
     inkscape:connector-curvature="0"
     inkscape:export-filename="C:\Users\Anton\Documents\GitHub\proxyfy\src\img\icon_a_38.png"
     inkscape:export-xdpi="142.58083"
     inkscape:export-ydpi="142.58083" /><g
     id="g3364" /><g
     id="g3366" /><g
     id="g3368" /><g
     id="g3370" /><g
     id="g3372" /><g
     id="g3374" /><g
     id="g3376" /><g
     id="g3378" /><g
     id="g3380" /><g
     id="g3382" /><g
     id="g3384" /><g
     id="g3386" /><g
     id="g3388" /><g
     id="g3390" /><g
     id="g3392" /></svg>
