<svg xmlns="http://www.w3.org/2000/svg" viewBox="0 0 24 24"><path d="M21.637 14.672a.545.545 0 0 0-.264-.145c-.196-.044-.425.013-.75.106-.45.128-1.133.322-1.994.322-1.456 0-2.872-.57-4.21-1.692l1.549-1.548a.545.545 0 0 0-.387-.932h-1.263a1.099 1.099 0 0 1-1.098-1.098V8.423a.546.546 0 0 0-.932-.385l-1.547 1.55C8.401 6.8 9.075 4.424 9.37 3.384c.096-.337.154-.54.106-.75a.541.541 0 0 0-.145-.264A8.01 8.01 0 0 0 3.604-.013a8.068 8.068 0 0 0-3.279.69.547.547 0 0 0-.186.865 9.002 9.002 0 0 1 2.004 8.401.545.545 0 0 0 .173.558c.139.118.277.238.407.367a6.972 6.972 0 0 1 2.031 5.276c-.06 1.248-.563 2.53-1.455 3.707l-.264.35a.544.544 0 0 0 .764.763l.35-.265c1.176-.89 2.46-1.393 3.708-1.453a6.977 6.977 0 0 1 5.279 2.03c.129.13.248.27.365.407.136.16.35.227.559.173 2.918-.792 6.148-.026 8.404 2.002a.54.54 0 0 0 .48.13.544.544 0 0 0 .385-.313c1.347-3.045.666-6.663-1.692-9.003z" fill="#303c42"/></svg>