<?xml version="1.0" encoding="UTF-8" standalone="no"?>
<svg
   xmlns:dc="http://purl.org/dc/elements/1.1/"
   xmlns:cc="http://creativecommons.org/ns#"
   xmlns:rdf="http://www.w3.org/1999/02/22-rdf-syntax-ns#"
   xmlns:svg="http://www.w3.org/2000/svg"
   xmlns="http://www.w3.org/2000/svg"
   xmlns:sodipodi="http://sodipodi.sourceforge.net/DTD/sodipodi-0.dtd"
   xmlns:inkscape="http://www.inkscape.org/namespaces/inkscape"
   id="Layer_1"
   style="enable-background:new 0 0 24 24;"
   version="1.1"
   viewBox="0 0 24 24"
   xml:space="preserve"
   inkscape:version="0.91 r13725"
   sodipodi:docname="1485096349_Bat-01.svg"
   inkscape:export-filename="C:\Users\Anton\Documents\GitHub\proxyfy\src\img\icon_19.png"
   inkscape:export-xdpi="71.210014"
   inkscape:export-ydpi="71.210014"><metadata
     id="metadata5895"><rdf:RDF><cc:Work
         rdf:about=""><dc:format>image/svg+xml</dc:format><dc:type
           rdf:resource="http://purl.org/dc/dcmitype/StillImage" /></cc:Work></rdf:RDF></metadata><defs
     id="defs5893" /><sodipodi:namedview
     pagecolor="#ffffff"
     bordercolor="#666666"
     borderopacity="1"
     objecttolerance="10"
     gridtolerance="10"
     guidetolerance="10"
     inkscape:pageopacity="0"
     inkscape:pageshadow="2"
     inkscape:window-width="1858"
     inkscape:window-height="1057"
     id="namedview5891"
     showgrid="false"
     inkscape:zoom="27.812867"
     inkscape:cx="9.112611"
     inkscape:cy="13.527328"
     inkscape:window-x="-8"
     inkscape:window-y="-8"
     inkscape:window-maximized="1"
     inkscape:current-layer="Layer_1" /><path
     d="m 21.636972,14.671855 c -0.07204,-0.07204 -0.163728,-0.12225 -0.264148,-0.145172 -0.195383,-0.04366 -0.424602,0.0131 -0.749876,0.105878 -0.450798,0.128799 -1.132999,0.321998 -1.99421,0.321998 -1.45609,0 -2.871793,-0.569774 -4.209999,-1.691858 l 1.548869,-1.547778 c 0.156088,-0.156088 0.203023,-0.390765 0.117885,-0.594879 -0.08405,-0.204115 -0.283796,-0.337281 -0.504283,-0.337281 l -1.262891,0 c -0.605795,0 -1.098071,-0.492276 -1.098071,-1.0980704 l 0,-1.2617993 c 0,-0.2204873 -0.133166,-0.4202358 -0.33728,-0.504283 C 12.67667,7.8334716 12.443085,7.880407 12.288089,8.0375862 L 10.741403,9.5875471 C 8.4000888,6.7998005 9.0746492,4.4235577 9.3693601,3.3844291 9.465414,3.0471488 9.5232647,2.8441258 9.4752377,2.6334621 9.4523157,2.5330421 9.4021057,2.4424458 9.3300653,2.3704054 7.8041179,0.83245126 5.770613,-0.01347808 3.6039423,-0.01347808 c -1.1384571,0 -2.2408941,0.23249413 -3.27893127,0.69093325 -0.16045369,0.0709489 -0.276155,0.21393826 -0.31326674,0.38530713 -0.03602021,0.1702774 0.01200674,0.349287 0.12770805,0.4791781 2.05861006,2.2878295 2.80739396,5.4281375 2.00403396,8.4014428 -0.055668,0.2041148 0.012007,0.4202358 0.1724604,0.5577678 0.1386233,0.117884 0.2772465,0.237952 0.4071376,0.366751 1.2126806,1.211589 1.9319935,2.829224 2.0280474,4.553829 0.013098,0.241226 0.01419,0.482452 0.00327,0.722587 -0.061125,1.247609 -0.5632252,2.530147 -1.4549984,3.706808 l -0.2641483,0.349287 c -0.1648198,0.217213 -0.1440808,0.522839 0.049119,0.714947 0.1921078,0.193199 0.4966424,0.215029 0.7149467,0.04912 l 0.349287,-0.26524 c 1.1766604,-0.890681 2.4602899,-1.392781 3.7078993,-1.452815 0.2412263,-0.01201 0.4813611,-0.01092 0.7225874,0.0022 1.7246046,0.09496 3.3422386,0.815367 4.5560106,2.028047 0.129891,0.129891 0.248867,0.268515 0.36566,0.406046 0.13644,0.160454 0.349287,0.227037 0.558859,0.173552 2.918729,-0.792444 6.148542,-0.0262 8.404718,2.001851 C 22.564766,23.950882 22.69684,24 22.830005,24 c 0.0382,0 0.07641,-0.0033 0.113519,-0.01201 0.171369,-0.03602 0.314358,-0.152813 0.385307,-0.313266 1.346938,-3.044255 0.665828,-6.662649 -1.691859,-9.002872 z"
     id="XMLID_54_"
     style="fill:#303c42"
     inkscape:export-xdpi="77.730003"
     inkscape:export-ydpi="77.730003"
     inkscape:connector-curvature="0" /><g
     id="g5861"
     inkscape:export-xdpi="77.730003"
     inkscape:export-ydpi="77.730003"
     transform="matrix(1.0915217,0,0,1.0915217,-1.0917841,-1.1049998)" /><g
     id="g5863"
     inkscape:export-xdpi="77.730003"
     inkscape:export-ydpi="77.730003"
     transform="matrix(1.0915217,0,0,1.0915217,-1.0917841,-1.1049998)" /><g
     id="g5865"
     inkscape:export-xdpi="77.730003"
     inkscape:export-ydpi="77.730003"
     transform="matrix(1.0915217,0,0,1.0915217,-1.0917841,-1.1049998)" /><g
     id="g5867"
     inkscape:export-xdpi="77.730003"
     inkscape:export-ydpi="77.730003"
     transform="matrix(1.0915217,0,0,1.0915217,-1.0917841,-1.1049998)" /><g
     id="g5869"
     inkscape:export-xdpi="77.730003"
     inkscape:export-ydpi="77.730003"
     transform="matrix(1.0915217,0,0,1.0915217,-1.0917841,-1.1049998)" /><g
     id="g5871"
     inkscape:export-xdpi="77.730003"
     inkscape:export-ydpi="77.730003"
     transform="matrix(1.0915217,0,0,1.0915217,-1.0917841,-1.1049998)" /><g
     id="g5873"
     inkscape:export-xdpi="77.730003"
     inkscape:export-ydpi="77.730003"
     transform="matrix(1.0915217,0,0,1.0915217,-1.0917841,-1.1049998)" /><g
     id="g5875"
     inkscape:export-xdpi="77.730003"
     inkscape:export-ydpi="77.730003"
     transform="matrix(1.0915217,0,0,1.0915217,-1.0917841,-1.1049998)" /><g
     id="g5877"
     inkscape:export-xdpi="77.730003"
     inkscape:export-ydpi="77.730003"
     transform="matrix(1.0915217,0,0,1.0915217,-1.0917841,-1.1049998)" /><g
     id="g5879"
     inkscape:export-xdpi="77.730003"
     inkscape:export-ydpi="77.730003"
     transform="matrix(1.0915217,0,0,1.0915217,-1.0917841,-1.1049998)" /><g
     id="g5881"
     inkscape:export-xdpi="77.730003"
     inkscape:export-ydpi="77.730003"
     transform="matrix(1.0915217,0,0,1.0915217,-1.0917841,-1.1049998)" /><g
     id="g5883"
     inkscape:export-xdpi="77.730003"
     inkscape:export-ydpi="77.730003"
     transform="matrix(1.0915217,0,0,1.0915217,-1.0917841,-1.1049998)" /><g
     id="g5885"
     inkscape:export-xdpi="77.730003"
     inkscape:export-ydpi="77.730003"
     transform="matrix(1.0915217,0,0,1.0915217,-1.0917841,-1.1049998)" /><g
     id="g5887"
     inkscape:export-xdpi="77.730003"
     inkscape:export-ydpi="77.730003"
     transform="matrix(1.0915217,0,0,1.0915217,-1.0917841,-1.1049998)" /><g
     id="g5889"
     inkscape:export-xdpi="77.730003"
     inkscape:export-ydpi="77.730003"
     transform="matrix(1.0915217,0,0,1.0915217,-1.0917841,-1.1049998)" /></svg>